<?xml version="1.0" encoding="utf-8"?>
<!-- Generator: Adobe Illustrator 16.0.0, SVG Export Plug-In . SVG Version: 6.00 Build 0)  -->
<!DOCTYPE svg PUBLIC "-//W3C//DTD SVG 1.1//EN" "http://www.w3.org/Graphics/SVG/1.1/DTD/svg11.dtd">
<svg version="1.1" id="Layer_1" xmlns="http://www.w3.org/2000/svg" xmlns:xlink="http://www.w3.org/1999/xlink" x="0px" y="0px"
	 width="164.736px" height="38.412px" viewBox="0 0 164.736 38.412" enable-background="new 0 0 164.736 38.412"
	 xml:space="preserve">
<g>
	<polygon points="22.177,10.975 34.85,10.975 38.017,5.487 34.85,0 31.682,5.487 19.009,5.487 9.504,21.948 15.84,21.948 	"/>
	<polygon points="19.009,27.435 0,27.435 3.169,32.923 22.177,32.923 25.344,27.435 22.177,21.948 	"/>
	<polygon points="69.697,5.487 66.527,0 50.688,27.435 25.344,27.435 28.513,32.923 53.856,32.923 	"/>
	<polygon points="34.848,21.948 41.186,21.948 47.521,10.975 53.856,10.975 57.025,5.487 44.353,5.487 	"/>
	<polygon points="82.368,27.435 57.025,27.435 60.193,32.923 85.538,32.923 101.377,5.487 98.21,0 	"/>
	<polygon points="66.527,21.948 72.865,21.948 79.199,10.975 85.538,10.975 88.707,5.487 76.031,5.487 	"/>
	<polygon points="120.386,27.435 123.554,32.923 148.896,32.923 152.062,27.435 148.896,21.948 145.729,27.435 	"/>
	<polygon points="139.392,5.487 136.226,10.975 148.896,10.975 152.062,5.487 	"/>
	<polygon points="164.736,5.487 161.57,0 152.062,16.463 133.058,16.463 129.89,21.948 148.896,21.948 155.232,21.948 	"/>
	<polygon points="110.88,10.975 117.218,10.975 120.386,5.487 107.711,5.487 98.21,21.948 104.546,21.948 	"/>
	<polygon points="133.058,5.487 129.89,0 114.05,27.435 95.039,27.435 91.872,32.923 85.538,32.923 88.707,38.409 95.039,38.409 
		98.21,32.923 117.218,32.923 120.386,27.435 	"/>
</g>
</svg>
