<?xml version="1.0" encoding="utf-8"?>
<!-- Generator: Adobe Illustrator 16.0.0, SVG Export Plug-In . SVG Version: 6.00 Build 0)  -->
<!DOCTYPE svg PUBLIC "-//W3C//DTD SVG 1.1//EN" "http://www.w3.org/Graphics/SVG/1.1/DTD/svg11.dtd">
<svg version="1.1" id="Layer_1" xmlns="http://www.w3.org/2000/svg" xmlns:xlink="http://www.w3.org/1999/xlink" x="0px" y="0px"
	 width="190.084px" height="60.354px" viewBox="0 0 190.084 60.354" enable-background="new 0 0 190.084 60.354"
	 xml:space="preserve">
<g>
	<polygon points="34.852,21.948 47.524,21.948 50.691,16.46 47.524,10.972 44.356,16.46 31.684,16.46 22.179,32.92 28.515,32.92 	
		"/>
	<polygon points="31.684,38.407 12.675,38.407 15.844,43.895 34.852,43.895 38.018,38.407 34.852,32.92 	"/>
	<polygon points="82.371,16.46 79.201,10.972 63.362,38.407 38.018,38.407 41.187,43.895 66.531,43.895 	"/>
	<polygon points="47.522,32.92 53.86,32.92 60.196,21.948 66.531,21.948 69.699,16.46 57.027,16.46 	"/>
	<polygon points="95.042,38.407 69.699,38.407 72.867,43.895 98.212,43.895 114.051,16.46 110.884,10.972 	"/>
	<polygon points="79.201,32.92 85.539,32.92 91.873,21.948 98.212,21.948 101.381,16.46 88.705,16.46 	"/>
	<polygon points="133.061,38.407 136.229,43.895 161.568,43.895 164.734,38.407 161.568,32.92 158.402,38.407 	"/>
	<polygon points="152.064,16.46 148.898,21.948 161.568,21.948 164.734,16.46 	"/>
	<polygon points="177.409,16.46 174.243,10.972 164.734,27.435 145.73,27.435 142.562,32.92 161.568,32.92 167.904,32.92 	"/>
	<polygon points="123.555,21.948 129.893,21.948 133.061,16.46 120.385,16.46 110.884,32.92 117.221,32.92 	"/>
	<polygon points="145.73,16.46 142.562,10.972 126.725,38.407 107.713,38.407 104.546,43.895 98.212,43.895 101.381,49.381 
		107.713,49.381 110.884,43.895 129.893,43.895 133.061,38.407 	"/>
</g>
</svg>
