<?xml version="1.0" encoding="utf-8"?>
<!-- Generator: Adobe Illustrator 16.0.0, SVG Export Plug-In . SVG Version: 6.00 Build 0)  -->
<!DOCTYPE svg PUBLIC "-//W3C//DTD SVG 1.1//EN" "http://www.w3.org/Graphics/SVG/1.1/DTD/svg11.dtd">
<svg version="1.1" id="Layer_1" xmlns="http://www.w3.org/2000/svg" xmlns:xlink="http://www.w3.org/1999/xlink" x="0px" y="0px"
	 width="190.084px" height="60.353px" viewBox="4.958 21.824 190.084 60.353" enable-background="new 4.958 21.824 190.084 60.353"
	 xml:space="preserve">
<g>
	<polygon points="39.81,43.771 52.482,43.771 55.649,38.283 52.482,32.796 49.314,38.283 36.642,38.283 27.137,54.743 
		33.473,54.743 	"/>
	<polygon points="36.642,60.23 17.633,60.23 20.802,65.719 39.81,65.719 42.976,60.23 39.81,54.743 	"/>
	<polygon points="87.329,38.283 84.159,32.796 68.32,60.23 42.976,60.23 46.145,65.719 71.489,65.719 	"/>
	<polygon points="52.48,54.743 58.818,54.743 65.154,43.771 71.489,43.771 74.657,38.283 61.985,38.283 	"/>
	<polygon points="100,60.23 74.657,60.23 77.825,65.719 103.17,65.719 119.009,38.283 115.842,32.796 	"/>
	<polygon points="84.159,54.743 90.497,54.743 96.831,43.771 103.17,43.771 106.339,38.283 93.663,38.283 	"/>
	<polygon points="138.018,60.23 141.186,65.719 166.527,65.719 169.693,60.23 166.527,54.743 163.361,60.23 	"/>
	<polygon points="157.023,38.283 153.857,43.771 166.527,43.771 169.693,38.283 	"/>
	<polygon points="182.367,38.283 179.201,32.796 169.693,49.259 150.689,49.259 147.521,54.743 166.527,54.743 172.863,54.743 	"/>
	<polygon points="128.512,43.771 134.85,43.771 138.018,38.283 125.343,38.283 115.842,54.743 122.178,54.743 	"/>
	<polygon points="150.689,38.283 147.521,32.796 131.682,60.23 112.671,60.23 109.504,65.719 103.17,65.719 106.339,71.204 
		112.671,71.204 115.842,65.719 134.85,65.719 138.018,60.23 	"/>
</g>
</svg>
