<?xml version="1.0" encoding="utf-8"?>
<!-- Generator: Adobe Illustrator 16.0.0, SVG Export Plug-In . SVG Version: 6.00 Build 0)  -->
<!DOCTYPE svg PUBLIC "-//W3C//DTD SVG 1.1//EN" "http://www.w3.org/Graphics/SVG/1.1/DTD/svg11.dtd">
<svg version="1.1" id="Layer_1" xmlns="http://www.w3.org/2000/svg" xmlns:xlink="http://www.w3.org/1999/xlink" x="0px" y="0px"
	 width="177.404px" height="49.386px" viewBox="0 0 177.404 49.386" enable-background="new 0 0 177.404 49.386"
	 xml:space="preserve">
<g>
	<polygon points="28.512,16.466 41.187,16.466 44.353,10.977 41.187,5.49 38.019,10.977 25.344,10.977 15.84,27.439 22.175,27.439 	
		"/>
	<polygon points="25.344,32.925 6.336,32.925 9.505,38.414 28.512,38.414 31.679,32.925 28.512,27.439 	"/>
	<polygon points="76.031,10.977 72.862,5.49 57.024,32.925 31.679,32.925 34.849,38.414 60.192,38.414 	"/>
	<polygon points="41.185,27.439 47.522,27.439 53.857,16.466 60.192,16.466 63.361,10.977 50.689,10.977 	"/>
	<polygon points="88.702,32.925 63.361,32.925 66.529,38.414 91.872,38.414 107.71,10.977 104.544,5.49 	"/>
	<polygon points="72.862,27.439 79.199,27.439 85.533,16.466 91.872,16.466 95.042,10.977 82.365,10.977 	"/>
	<polygon points="126.719,32.925 129.887,38.414 155.229,38.414 158.393,32.925 155.229,27.439 152.061,32.925 	"/>
	<polygon points="145.725,10.977 142.559,16.466 155.229,16.466 158.393,10.977 	"/>
	<polygon points="171.067,10.977 167.901,5.49 158.393,21.953 139.391,21.953 136.223,27.439 155.229,27.439 161.563,27.439 	"/>
	<polygon points="117.212,16.466 123.55,16.466 126.719,10.977 114.044,10.977 104.544,27.439 110.88,27.439 	"/>
	<polygon points="139.391,10.977 136.223,5.49 120.382,32.925 101.372,32.925 98.206,38.414 91.872,38.414 95.042,43.898 
		101.372,43.898 104.544,38.414 123.55,38.414 126.719,32.925 	"/>
</g>
</svg>
