<?xml version="1.0" encoding="utf-8"?>
<!-- Generator: Adobe Illustrator 16.0.0, SVG Export Plug-In . SVG Version: 6.00 Build 0)  -->
<!DOCTYPE svg PUBLIC "-//W3C//DTD SVG 1.1//EN" "http://www.w3.org/Graphics/SVG/1.1/DTD/svg11.dtd">
<svg version="1.1" id="Layer_1" xmlns="http://www.w3.org/2000/svg" xmlns:xlink="http://www.w3.org/1999/xlink" x="0px" y="0px"
	 width="177.404px" height="49.386px" viewBox="-6.669 4.68 177.404 49.386" enable-background="new -6.669 4.68 177.404 49.386"
	 xml:space="preserve">
<g>
	<polygon points="21.843,21.144 34.517,21.144 37.683,15.655 34.517,10.168 31.349,15.655 18.675,15.655 9.171,32.116 
		15.506,32.116 	"/>
	<polygon points="18.675,37.603 -0.333,37.603 2.836,43.091 21.843,43.091 25.01,37.603 21.843,32.116 	"/>
	<polygon points="69.362,15.655 66.192,10.168 50.354,37.603 25.01,37.603 28.179,43.091 53.522,43.091 	"/>
	<polygon points="34.515,32.116 40.852,32.116 47.187,21.144 53.522,21.144 56.691,15.655 44.019,15.655 	"/>
	<polygon points="82.033,37.603 56.691,37.603 59.859,43.091 85.203,43.091 101.041,15.655 97.874,10.168 	"/>
	<polygon points="66.192,32.116 72.53,32.116 78.864,21.144 85.203,21.144 88.372,15.655 75.696,15.655 	"/>
	<polygon points="120.051,37.603 123.219,43.091 148.559,43.091 151.724,37.603 148.559,32.116 145.392,37.603 	"/>
	<polygon points="139.055,15.655 135.889,21.144 148.559,21.144 151.724,15.655 	"/>
	<polygon points="164.398,15.655 161.232,10.168 151.724,26.631 132.721,26.631 129.554,32.116 148.559,32.116 154.894,32.116 	"/>
	<polygon points="110.543,21.144 116.881,21.144 120.051,15.655 107.375,15.655 97.874,32.116 104.21,32.116 	"/>
	<polygon points="132.721,15.655 129.554,10.168 113.713,37.603 94.703,37.603 91.536,43.091 85.203,43.091 88.372,48.576 
		94.703,48.576 97.874,43.091 116.881,43.091 120.051,37.603 	"/>
</g>
</svg>
